HIERARCHY
ROOT root
{
	OFFSET 0.000000 0.000000 0.000000
	CHANNELS 6 Xposition Yposition Zposition Zrotation Yrotation Xrotation
	JOINT lhip
	{
		OFFSET 0.058581 -0.082280 -0.017664
		CHANNELS 3 Zrotation Yrotation Xrotation
		JOINT lknee
		{
			OFFSET 0.043451 -0.386469 0.008037
			CHANNELS 3 Zrotation Yrotation Xrotation
			JOINT lankle
			{
				OFFSET -0.014790 -0.426874 -0.037428
				CHANNELS 3 Zrotation Yrotation Xrotation
				JOINT ltoe
				{
					OFFSET 0.041054 -0.060286 0.122042
					CHANNELS 3 Zrotation Yrotation Xrotation
					End Site
					{
						OFFSET 0.000000 0.000000 0.000000
					}
				}
			}
		}
	}
	JOINT rhip
	{
		OFFSET -0.060310 -0.090513 -0.013543
		CHANNELS 3 Zrotation Yrotation Xrotation
		JOINT rknee
		{
			OFFSET -0.043257 -0.383688 -0.004843
			CHANNELS 3 Zrotation Yrotation Xrotation
			JOINT rankle
			{
				OFFSET 0.019056 -0.420046 -0.034562
				CHANNELS 3 Zrotation Yrotation Xrotation
				JOINT rtoe
				{
					OFFSET -0.034840 -0.062106 0.130323
					CHANNELS 3 Zrotation Yrotation Xrotation
					End Site
					{
						OFFSET 0.000000 0.000000 0.000000
					}
				}
			}
		}
	}
	JOINT lowerback
	{
		OFFSET 0.004439 0.124404 -0.038385
		CHANNELS 3 Zrotation Yrotation Xrotation
		JOINT upperback
		{
			OFFSET 0.004488 0.137956 0.026820
			CHANNELS 3 Zrotation Yrotation Xrotation
			JOINT chest
			{
				OFFSET -0.002265 0.056032 0.002855
				CHANNELS 3 Zrotation Yrotation Xrotation
				JOINT lowerneck
				{
					OFFSET -0.013390 0.211636 -0.033468
					CHANNELS 3 Zrotation Yrotation Xrotation
					JOINT upperneck
					{
						OFFSET 0.010113 0.088937 0.050410
						CHANNELS 3 Zrotation Yrotation Xrotation
						End Site
						{
							OFFSET 0.000000 0.000000 0.000000
						}
					}
				}
				JOINT lclavicle
				{
					OFFSET 0.071702 0.114000 -0.018898
					CHANNELS 3 Zrotation Yrotation Xrotation
					JOINT lshoulder
					{
						OFFSET 0.122921 0.045205 -0.019046
						CHANNELS 3 Zrotation Yrotation Xrotation
						JOINT lelbow
						{
							OFFSET 0.255332 -0.015649 -0.022946
							CHANNELS 3 Zrotation Yrotation Xrotation
							JOINT lwrist
							{
								OFFSET 0.265709 0.012698 -0.007375
								CHANNELS 3 Zrotation Yrotation Xrotation
								End Site
								{
									OFFSET 0.000000 0.000000 0.000000
								}
							}
						}
					}
				}
				JOINT rclavicle
				{
					OFFSET -0.082954 0.112472 -0.023707
					CHANNELS 3 Zrotation Yrotation Xrotation
					JOINT rshoulder
					{
						OFFSET -0.113228 0.046853 -0.008472
						CHANNELS 3 Zrotation Yrotation Xrotation
						JOINT relbow
						{
							OFFSET -0.260127 -0.014369 -0.031269
							CHANNELS 3 Zrotation Yrotation Xrotation
							JOINT rwrist
							{
								OFFSET -0.269108 0.006794 -0.006027
								CHANNELS 3 Zrotation Yrotation Xrotation
								End Site
								{
									OFFSET 0.000000 0.000000 0.000000
								}
							}
						}
					}
				}
			}
		}
	}
}
MOTION
Frames: 8
Frame Time: 0.033333
0.293570 0.190592 0.921940 85.857851 -2.238611 104.227577 7.786820 10.275831 -40.665459 -8.912872 7.161773 44.960219 1.106186 8.335058 -15.324077 0.000000 -0.000000 0.000000 -13.042514 -7.499397 -45.727658 5.104911 -6.573593 51.127334 4.288479 -3.309785 -17.217371 0.000000 -0.000000 0.000000 5.446801 2.095391 19.800249 2.966670 2.204367 -3.071737 2.769333 3.561622 2.992854 8.633021 0.975340 22.402264 11.980621 4.765581 -27.497355 8.935602 9.811862 -4.897458 -20.335891 -13.313631 5.292972 163.275963 -73.570171 -150.385222 -15.481381 -33.990335 -45.914608 -17.211703 -3.980456 -6.322002 17.896632 7.551516 -23.171364 -64.247847 51.125408 -61.236764 19.940131 15.680851 -31.718111 
0.293611 0.193239 0.922893 86.285968 -2.434885 103.966545 7.318701 10.013517 -40.513984 -8.778017 6.979542 44.976949 1.313165 8.337911 -15.338747 0.000000 -0.000000 0.000000 -13.375674 -7.900897 -45.361645 5.105804 -6.641200 51.225483 4.489745 -3.264067 -17.345085 0.000000 -0.000000 0.000000 6.504076 2.401787 19.753392 3.306044 2.767797 -3.257771 2.812370 3.585659 3.277747 8.363519 0.973661 22.891772 11.656184 3.668939 -28.817245 9.403513 10.234210 -5.461848 -18.487515 -13.695672 2.777955 150.624610 -75.917180 -138.804986 -19.735727 -35.791307 -42.974996 -16.841733 -3.932899 -6.023423 19.741852 6.479796 -23.100147 -60.866793 50.540691 -56.806332 22.398974 14.932500 -28.649567 
0.293458 0.195772 0.923456 86.701885 -2.704212 103.821902 6.815138 9.639338 -40.515908 -8.617390 6.900665 45.015998 1.369835 8.313381 -15.405072 0.000000 -0.000000 0.000000 -13.822683 -8.291084 -45.125160 5.026996 -6.791629 51.379322 4.675569 -3.062974 -17.465979 0.000000 -0.000000 0.000000 7.291535 2.736215 19.696761 3.648361 3.232079 -3.206402 2.824168 3.593843 2.887177 8.505093 1.675091 23.443046 11.404859 1.978075 -29.630042 9.823803 10.898886 -6.016247 -16.927425 -14.732752 1.126728 132.341538 -77.312873 -121.737934 -23.805062 -37.169895 -40.044797 -16.484355 -3.645365 -5.330089 21.563884 5.425731 -21.590363 -58.983636 48.712559 -53.262450 24.235613 14.725398 -26.566094 
0.293681 0.197956 0.923933 87.149587 -2.948692 103.602715 6.329515 9.297643 -40.372950 -8.696301 6.582718 44.976402 1.534913 8.499958 -15.425413 0.000000 -0.000000 0.000000 -14.216581 -8.828598 -44.709002 5.150271 -6.779571 51.408997 4.865137 -2.975478 -17.536977 0.000000 -0.000000 0.000000 7.701131 3.147354 19.778749 4.101106 3.567972 -3.590315 3.138443 3.732842 2.821224 8.247601 1.788229 23.368542 11.182933 0.902791 -29.718573 10.303344 11.545370 -6.263689 -15.766512 -16.103316 -1.243321 114.345275 -77.776138 -104.908512 -26.644253 -37.369310 -38.107466 -15.633144 -3.954479 -4.761559 22.254596 4.836912 -21.758565 -55.608075 48.701631 -48.645138 26.234117 13.764232 -23.502687 
0.294125 0.199889 0.924254 87.481988 -3.077249 103.430530 5.975707 9.164198 -40.161901 -8.734676 6.362261 44.851260 1.663502 8.507945 -15.432490 0.000000 -0.000000 0.000000 -14.566414 -9.143118 -44.313581 5.234016 -6.904743 51.395327 5.004393 -2.844288 -17.587400 0.000000 -0.000000 0.000000 8.383789 3.439725 19.695780 4.289081 3.983175 -3.476737 3.089967 3.886842 2.421070 8.497151 2.617118 23.759164 11.228112 -0.687570 -30.653756 10.782340 12.048618 -6.725588 -14.685651 -17.464746 -2.921330 95.992839 -76.454027 -87.901719 -29.550920 -37.597278 -35.657109 -15.343153 -3.660241 -3.651574 24.199442 3.680886 -20.382607 -54.358619 47.112744 -46.115991 27.285853 13.260938 -21.286543 
0.294620 0.201773 0.924327 88.194796 -3.232011 103.283595 5.610938 8.830690 -40.199536 -9.016948 5.851818 44.923999 1.322655 7.983047 -15.670021 0.000000 -0.000000 0.000000 -14.933543 -9.782065 -43.806295 5.276367 -7.181675 51.391401 5.167451 -2.574857 -17.707752 0.000000 -0.000000 0.000000 8.553957 3.686803 19.632214 4.858215 4.157488 -3.676108 3.467964 3.971013 2.134129 8.619000 2.930703 23.398230 10.895350 -1.984010 -30.570700 11.091013 12.971394 -7.099291 -14.041525 -19.061394 -4.567049 83.529043 -74.441142 -76.596153 -31.452068 -37.295329 -33.488430 -14.316109 -3.934891 -2.940720 24.677815 3.277917 -19.272068 -52.174229 46.171486 -42.710713 27.939192 12.835077 -19.196661 
0.295288 0.203509 0.924479 88.825831 -3.382791 103.139625 5.172738 8.526835 -40.164031 -8.779302 5.616038 45.052940 1.814145 8.516469 -15.662931 0.000000 -0.000000 0.000000 -15.311383 -10.321771 -43.283944 5.405414 -7.372537 51.347927 5.244811 -2.453502 -17.766026 0.000000 -0.000000 0.000000 8.901212 3.978877 19.442894 5.231600 4.375982 -3.552643 3.643745 4.020096 1.852012 8.873070 3.460540 23.135034 10.585775 -3.038041 -30.856919 11.337843 13.570175 -7.711052 -13.297183 -20.272335 -6.295347 75.275755 -72.095741 -69.437569 -32.951354 -36.774166 -31.682319 -13.545684 -4.031801 -2.392260 25.928411 2.542946 -18.542997 -50.590463 45.380382 -40.354214 28.146968 12.328938 -16.869480 
0.295840 0.205203 0.924839 89.426756 -3.455963 102.989094 4.927623 8.278976 -40.056638 -9.175556 5.127806 44.939939 1.732096 8.294505 -15.817147 0.000000 -0.000000 0.000000 -15.565461 -10.711109 -42.805420 5.534393 -7.479636 51.278330 5.283139 -2.573602 -17.848215 0.000000 -0.000000 0.000000 9.272540 4.320432 19.427104 5.589911 4.668535 -3.730395 3.869509 4.117752 1.643273 8.987858 3.613175 22.793243 10.169026 -4.201411 -30.792005 11.427705 13.958677 -8.155502 -12.534879 -21.426264 -7.972041 70.066336 -69.484501 -65.350583 -34.402396 -35.964199 -30.276782 -12.749981 -4.232305 -1.997023 27.299857 1.588053 -17.651587 -49.220259 44.885853 -38.295514 28.777862 11.045238 -16.223324 
